<svg id="Layer_1" data-name="Layer 1" xmlns="http://www.w3.org/2000/svg" viewBox="0 0 345.95 128.35"><defs><style>.cls-1{fill:#231f20;}.cls-2{fill:#ce6784;}</style></defs><path class="cls-1" d="M243,431.06l-14.74,17.26a2.06,2.06,0,0,1-1,.48c-1,.09-1.84-1.63-1.84-3.44-.16-11.44,0-22.88,0-34.32V376c0-1.91.81-3.43,1.84-3.43a1.17,1.17,0,0,1,1,.57L243,390.93a5.28,5.28,0,0,1,0,5.81L230.73,411,243,425.25a5.28,5.28,0,0,1,0,5.81Zm-13.87-48.81v22.6l9.47-11.06Zm0,35v21.93l9.42-11Z" transform="translate(-218.67 -331.99)"/><path class="cls-1" d="M265.13,431.06l-14.74,17.26a2.06,2.06,0,0,1-1,.48c-1,.09-1.84-1.63-1.84-3.44-.16-11.44,0-22.88,0-34.32V376c0-1.91.81-3.43,1.84-3.43a1.18,1.18,0,0,1,1,.57l14.74,17.83a5.28,5.28,0,0,1,0,5.81L252.9,411l12.23,14.21a5.28,5.28,0,0,1,0,5.81Zm-13.87-48.81v22.6l9.47-11.06Zm0,35v21.93l9.42-11Z" transform="translate(-218.67 -331.99)"/><path class="cls-1" d="M287.66,401.22a4.88,4.88,0,0,1,.57,2.39v41.75c0,1.91-.82,3.44-1.85,3.44s-1.89-1.53-1.89-3.44V427.63l-11.11-20.69v38.42c0,1.91-.82,3.44-1.84,3.44s-1.9-1.53-1.9-3.44V376a4,4,0,0,1,1.18-3.15c.66-.57,1.48-.28,2,.77Zm-14.28-4.1,11.11,20.69V405l-11.11-20.69Z" transform="translate(-218.67 -331.99)"/><path class="cls-1" d="M310.19,445.36c0,2-.82,3.34-1.84,3.44-.57,0-1.08-.48-1.44-1.34l-11.46-26.69v24.59c0,1.91-.87,3.44-1.9,3.44s-1.84-1.53-1.84-3.44V376.05c0-1.9.82-3.52,1.84-3.52.57,0,1.13.47,1.49,1.33L306.5,401v-24.5c0-1.91.82-3.43,1.85-3.43s1.84,1.52,1.84,3.43Zm-14.74-59.49v23.84l11.05,25.83V412.19Z" transform="translate(-218.67 -331.99)"/><path class="cls-1" d="M318.74,410.66l14,32.51a5.56,5.56,0,0,1-.31,4.86,1.45,1.45,0,0,1-1.13.77c-.56,0-1.12-.48-1.48-1.34l-11.57-26.88v24.78c0,1.91-.82,3.44-1.84,3.44s-1.9-1.53-1.9-3.44V376c0-1.91.87-3.43,1.9-3.43s1.84,1.52,1.84,3.43v24.79l11.57-26.89c.66-1.52,1.84-1.81,2.61-.57a5.56,5.56,0,0,1,.31,4.86Z" transform="translate(-218.67 -331.99)"/><rect class="cls-1" x="4.85" y="40.54" width="110.83" height="5.35" rx="2.48"/><rect class="cls-1" x="4.85" y="111.45" width="110.83" height="5.35" rx="2.48"/><rect class="cls-2" y="119.88" width="118.11" height="8.48" rx="2.48"/><path class="cls-2" d="M330.77,361.26,280.84,332.8a6.47,6.47,0,0,0-6.24,0l-49.93,28.46c-4.41,2.51-2.25,8.2,3.12,8.2h99.86C333,369.46,335.18,363.77,330.77,361.26Zm-53-8.38c-3.81,0-6.9-2.54-6.9-5.68s3.09-5.67,6.9-5.67,6.9,2.54,6.9,5.67S281.53,352.88,277.72,352.88Z" transform="translate(-218.67 -331.99)"/><path class="cls-1" d="M388.63,360.07q6.58.42,10,2.93a8.2,8.2,0,0,1,3.43,7,10.62,10.62,0,0,1-4.93,9.45q-4.92,3.22-16.43,4.46l-25.87,2.7L367,380.88l-5.86-35.45-8.41-3.84,29.94,1.55q8.64.44,12.06,2.2a5.84,5.84,0,0,1,3.41,5.54,7.32,7.32,0,0,1-2.36,5.46A17.66,17.66,0,0,1,388.63,360.07Zm-15,16.32a35.1,35.1,0,0,0,6.66-4.77q2.19-2.14,2.19-3.87a2.3,2.3,0,0,0-.9-1.85,3.45,3.45,0,0,0-2.24-.73,10.73,10.73,0,0,0-2.11.25,19.57,19.57,0,0,0-2.46.72Zm2.11-19.8a14.25,14.25,0,0,0,5.3-1.51c1.35-.75,2-1.59,2-2.51a3.49,3.49,0,0,0-2.14-3.14,13.16,13.16,0,0,0-5.94-1.25Z" transform="translate(-218.67 -331.99)"/><path class="cls-1" d="M440.89,355.09l-4.3,2,.88,24.55,3.37,2.58-12.9,1.61,2.2-8.94a20.07,20.07,0,0,1-6.22,6.68,14,14,0,0,1-7.69,2.26,10.54,10.54,0,0,1-8.4-4.09,15.28,15.28,0,0,1-3.41-10.12q0-7.71,3.66-12.67a11.07,11.07,0,0,1,9.23-5,12.81,12.81,0,0,1,7.43,2.21,17,17,0,0,1,5.4,6.61l-1.84-9Zm-20.5,6.13a5.85,5.85,0,0,0-1.12,1.87,7.12,7.12,0,0,0-.35,2.32,5.94,5.94,0,0,0,1.69,4.32,5.53,5.53,0,0,0,4.14,1.74,5.08,5.08,0,0,0,1.82-.36,9.17,9.17,0,0,0,1.9-1.07,27.84,27.84,0,0,0-3.91-5.67A12.68,12.68,0,0,0,420.39,361.22Z" transform="translate(-218.67 -331.99)"/><path class="cls-1" d="M479.1,343.08l-3.78,1.7L475,382.16l3.66,4.14L459.06,385c-5-.34-9.06-1.87-12.13-4.62a13.25,13.25,0,0,1-4.6-10.33A16.46,16.46,0,0,1,446.17,359a11.92,11.92,0,0,1,9.4-4.49,13.29,13.29,0,0,1,6.59,1.65,17.59,17.59,0,0,1,5.48,5.09l-3.31-16.56-4.13-3.19ZM458,360.92a4.25,4.25,0,0,0-.93,1.57,6.27,6.27,0,0,0,5.85,8.25,5,5,0,0,0,1.95-.38,6.83,6.83,0,0,0,1.83-1.23,17.27,17.27,0,0,0-3.7-5.28A12.93,12.93,0,0,0,458,360.92Z" transform="translate(-218.67 -331.99)"/><path class="cls-2" d="M389.72,429.14q6.58.42,10,2.93a8.17,8.17,0,0,1,3.42,7,10.61,10.61,0,0,1-4.92,9.45q-4.92,3.24-16.43,4.47l-25.87,2.69,12.18-5.71-5.85-35.45-8.41-3.84,29.94,1.56q8.64.44,12.05,2.19a5.84,5.84,0,0,1,3.42,5.54,7.34,7.34,0,0,1-2.36,5.47A17.79,17.79,0,0,1,389.72,429.14Zm-15,16.32a35.07,35.07,0,0,0,6.66-4.78c1.46-1.42,2.18-2.71,2.18-3.86a2.27,2.27,0,0,0-.89-1.85,3.39,3.39,0,0,0-2.24-.73,10,10,0,0,0-2.11.25,16.71,16.71,0,0,0-2.46.72Zm2.11-19.81a14.32,14.32,0,0,0,5.3-1.5c1.35-.76,2-1.59,2-2.51a3.5,3.5,0,0,0-2.14-3.15,13.33,13.33,0,0,0-5.95-1.24Z" transform="translate(-218.67 -331.99)"/><path class="cls-2" d="M457,448l-25.54,7.91,6.53-8.76-1.85-6.48-9.49.74L423.88,449l4.13,3.22-27.78,2,6.77-5,9-35-5.1-3.31L445.35,412l-8,2.87,14.1,31.47Zm-23.64-16.82-4.07-11.69-4,14.42Z" transform="translate(-218.67 -331.99)"/><path class="cls-2" d="M511.18,414.49l-4.57,2-4.69,34.31,6.62,2.64-15.32,1.2-21.3-30.29,7.33,27.48,7.73,4.24-32.69-3,5-3.37,2.11-32.29-7.09-2.87L478.9,411,494,443.79l-2.64-28.45-4.75-3.19Z" transform="translate(-218.67 -331.99)"/><path class="cls-2" d="M564.62,455l-23.32-2.84,4.66-3.05-13.6-14-1.52.29L534,451l4.93,5.24L509.48,453l5.28-3.9,2.78-31.87-5.71-3.66,23.58-2.88-6.59,5.1,2,12.42,10.34-12.3-2.9-3.55,21.48.8-15.24,12.24Z" transform="translate(-218.67 -331.99)"/></svg>